<?xml version="1.0" encoding="utf-8"?>
<!-- Generator: Adobe Illustrator 22.0.1, SVG Export Plug-In . SVG Version: 6.00 Build 0)  -->
<svg version="1.1" id="Layer_1" xmlns="http://www.w3.org/2000/svg" xmlns:xlink="http://www.w3.org/1999/xlink" x="0px" y="0px"
	 viewBox="0 0 170 85" style="enable-background:new 0 0 170 85;" xml:space="preserve">
<style type="text/css">
	.st0{fill:#010101;}
	.st1{fill:#F8ED33;}
</style>
<g>
	<polygon class="st0" points="11.5,36.5 4.8,36.5 4.8,7.9 0.4,7.9 0.4,3.1 15.9,3.1 15.9,7.9 11.5,7.9 	"/>
	<path class="st0" d="M20.3,31.1c0,0.6,0.2,1.3,1,1.3c0.7,0,1.2-0.7,1.2-1.3v-7.7l-1.2,0.7c-0.7,0.7-1,1-1,2.2V31.1z M14.4,15.4
		c0-4,3.3-6.2,7.1-6.2s7.1,2.2,7.1,6.2v15.7c0,1.9,0.2,3.6,0.4,5.4h-6.2l-0.4-2.7l0,0c-0.7,2.2-2.3,3-4,3c-3,0-4-1.7-4-4.8v-5.8
		c0-6.8,8.1-4.2,8.1-10v-1.2c0-0.6-0.2-1.3-1.2-1.3c-0.7,0-1,0.7-1,1.3v3.9h-5.9v-3.5H14.4z"/>
	<path class="st0" d="M35.7,11.9L35.7,11.9c0.4-1.7,2.5-2.7,4.2-2.7c3.9,0,4,2.7,4,5.9v21.3H38v-21c0-0.6-0.2-1.3-1.2-1.3
		c-0.7,0-1,0.7-1,1.3v20.9h-5.9V9.6h5.9v2.3H35.7z"/>
	<path class="st0" d="M59.7,9.6l-4.2,27.3c-0.7,4.6-1.6,5.8-7.5,5.8h-3v-4.5h1.9c1.3,0,1.7-0.2,1.7-1.2c0-0.2,0-0.4,0-0.7L44.5,9.6
		h5.9l1.7,20.5l0,0L54,9.6C54.2,9.6,59.7,9.6,59.7,9.6z"/>
	<path class="st0" d="M66.2,31.1c0,0.6,0.2,1.3,1,1.3c0.7,0,1.2-0.7,1.2-1.3v-7.7l-1.2,0.7c-0.7,0.7-1,1-1,2.2V31.1z M60.2,15.4
		c0-4,3.3-6.2,7.1-6.2s7.1,2.2,7.1,6.2v15.7c0,1.9,0.2,3.6,0.4,5.4h-6l-0.4-2.7l0,0c-0.7,2.2-2.3,3-4,3c-3,0-4-1.7-4-4.8v-5.8
		c0-6.8,8.1-4.2,8.1-10v-1.2c0-0.6-0.2-1.3-1.2-1.3c-0.7,0-1,0.7-1,1.3v3.9h-5.9C60.2,19,60.2,15.4,60.2,15.4z"/>
	<path class="st0" d="M7.8,72.6h0.7c1.2,0,1.6-0.2,1.6-1.6v-7.5c0-1.3-0.4-1.6-1.6-1.6H7.8V72.6z M10.1,50.6c0-1.6-0.4-2.2-1.6-2.2
		H7.8v9.2h0.7c1.2,0,1.6-0.6,1.6-2.2V50.6z M1.1,43.8h7.8c4,0,7.8,1.7,7.8,6.8v2.5c0,3.3-0.7,5.4-4.9,6.4v0.2
		c3.5,0.4,4.9,1.9,4.9,7.2v2.9c0,5.8-2.7,7.5-7.8,7.5H1.1V43.8z"/>
	<path class="st0" d="M24,52.8L24,52.8c1-1.7,2.3-2.7,4.5-2.7c2.9,0,3.6,1.7,3.6,4.8v10.1h-5.9v-8.4c0-0.6-0.2-1.3-1.2-1.3
		c-0.7,0-1,0.7-1,1.3v20.9h-5.9V50.6H24C24,50.6,24,52.8,24,52.8z"/>
	<path class="st0" d="M33.4,50.5h5.9v26.9h-5.9C33.4,77.4,33.4,50.5,33.4,50.5z M33.4,43.8h5.9v4.9h-5.9
		C33.4,48.7,33.4,43.8,33.4,43.8z"/>
	<rect x="40.7" y="43.8" class="st0" width="5.9" height="33.5"/>
	<rect x="48" y="43.8" class="st0" width="5.9" height="33.5"/>
	<path class="st0" d="M63.3,60.9v-4.8c0-0.6-0.2-1.3-1.2-1.3c-0.7,0-1,0.7-1,1.3v4.8H63.3z M55.2,56.1c0-4,3.3-6.2,7.1-6.2
		s7.1,2.2,7.1,6.2v8.7h-8.2v7.1c0,0.6,0.2,1.3,1,1.3s1.2-0.7,1.2-1.3v-5.2h5.9v4.9c0,4-3.3,6.2-7.1,6.2s-7.1-2.2-7.1-6.2V56.1H55.2z
		"/>
	<path class="st0" d="M76.6,52.8L76.6,52.8c1-1.7,1.7-2.7,4-2.7c2.2,0,3,0.6,3.9,2.7c1-1.7,1.7-2.7,4-2.7c3.9,0,4.2,2.9,4.2,4.9
		v22.3h-5.9v-21c0-0.6-0.2-1.3-1.2-1.3c-0.7,0-1,0.7-1,1.3v20.9h-5.9V56.4c0-0.6-0.2-1.3-1.2-1.3c-0.7,0-1,0.7-1,1.3v20.9h-5.9V50.5
		h5.9v2.3H76.6z"/>
	<path class="st0" d="M100,71.4c0,0.6,0.2,1.3,1,1.3c0.7,0,1.2-0.7,1.2-1.3v-15c0-0.6-0.2-1.3-1.2-1.3c-0.7,0-1,0.7-1,1.3V71.4z
		 M94.1,43.8h5.9v9l0,0c0.6-1.6,2.2-2.7,3.9-2.7c3.6,0,4.2,2.9,4.2,5.9v15.7c0,3-0.4,5.9-4.2,5.9c-1.7,0-3.3-1.3-3.9-3l0,0v2.9h-5.9
		V43.8z"/>
	<path class="st0" d="M117.2,55.8c0-0.6-0.2-1.3-1.2-1.3c-0.7,0-1,0.7-1,1.3v15.9c0,0.6,0.2,1.3,1,1.3c0.7,0,1.2-0.7,1.2-1.3V55.8z
		 M123.4,71.6c0,4-3.3,6.2-7.1,6.2s-7.1-2.2-7.1-6.2V56.3c0-4,3.3-6.2,7.1-6.2s7.1,2.2,7.1,6.2V71.6z"/>
	<path class="st0" d="M132.6,74.3L132.6,74.3c0,1.9-2.2,3.3-3.9,3.3c-3,0-4.2-1.9-4.2-4.8V50.5h5.9v20.9c0,0.6,0.2,1.3,1,1.3
		c0.7,0,1.2-0.7,1.2-1.3V50.5h5.9v26.9h-5.9C132.6,77.4,132.6,74.3,132.6,74.3z"/>
	<path class="st0" d="M145.8,52.8L145.8,52.8c1-1.7,2.3-2.7,4.5-2.7c2.9,0,3.6,1.7,3.6,4.8v10.1H148v-8.4c0-0.6-0.2-1.3-1.2-1.3
		c-0.7,0-1,0.7-1,1.3v20.9h-5.9V50.6h5.9V52.8z"/>
	<path class="st0" d="M163.3,56.4c0-0.6-0.2-1.3-1.2-1.3c-0.7,0-1,0.7-1,1.3v11.9c0,0.6,0.2,1.3,1,1.3c0.7,0,1.2-0.7,1.2-1.3V56.4z
		 M169.2,77.4c0,4.5-2.9,6.2-7.1,6.2s-7.1-1.7-7.1-6.2v-2.2h5.9v2.5c0,0.6,0.2,1.3,1,1.3s1.2-0.7,1.2-1.3v-5.9h-0.2
		c-0.7,1.6-2.3,2.5-4,2.5c-2.7,0-3.9-1.9-3.9-4.6V54.7c0-2.5,1-4.8,3.9-4.8c1.7,0,3.5,1.3,4,2.9h0.2v-2.5h6.1v27h0V77.4z"/>
	<path class="st1" d="M135.5,21.7l-1-13.9h-0.2L133,21.7H135.5z M130.9,2.2h8.8l4,33.5h-6.9l-0.7-9.2h-3l-1,9.2h-5.9L130.9,2.2z"/>
	<path class="st1" d="M150.4,11L150.4,11c1-1.6,2.3-2.5,4.2-2.5c2.9,0,3.6,1.7,3.6,4.8v10.1h-5.9v-8.7c0.2-0.7-0.2-1.6-1-1.6
		s-1,0.7-1,1.3v20.9h-5.9V8.7h5.9C150.4,8.7,150.4,11,150.4,11z"/>
	<path class="st1" d="M166.9,8.7h1.7v4.5h-1.7v16.3c0,0.7,0.2,1.9,1,1.9h0.7v4.5H166c-4.2,0-4.9-1.3-4.9-5.4V13.1h-1.6V8.7h1.6V3.8
		h5.9V8.7z"/>
	<rect x="78.6" y="21" class="st1" width="44.4" height="3.9"/>
</g>
</svg>
