<?xml version="1.0" encoding="utf-8"?>
<!-- Generator: Adobe Illustrator 22.0.1, SVG Export Plug-In . SVG Version: 6.00 Build 0)  -->
<svg version="1.1" id="Layer_1" xmlns="http://www.w3.org/2000/svg" xmlns:xlink="http://www.w3.org/1999/xlink" x="0px" y="0px"
	 viewBox="0 0 264 88" style="enable-background:new 0 0 264 88;" xml:space="preserve">
<style type="text/css">
	.st0{fill:#FFFFFF;stroke:#000000;stroke-width:1.5;}
</style>
<g>
	<path d="M67,59.5v3.8c-6.3,0.8-9.2,5.8-10,9.7c2.2-2.8,5.6-5.1,10-5.1v3.6l6-5.9L67,59.5z M13,29v-5h2v3h3v2H13z M13,15h5v2h-3v3
		h-2V15z M31,15v5h-2v-3h-3v-2H31z M31,29h-5v-2h3v-3h2V29z M62,24v5h-2v-3h-3v-2H62z M62,20h-5v-2h3v-3h2V20z M70,20v-5h2v3h3v2H70
		z M70,24h5v2h-3v3h-2V24z M20.6,66l-5.7-5.7l1.4-1.4l5.7,5.7l5.7-5.7l1.4,1.4L23.4,66l5.7,5.7l-1.4,1.4L22,67.4l-5.7,5.7l-1.4-1.4
		L20.6,66z M112.6,59.1l-5.5-13.7l1.8-1.5l6.1,15l-6.1,16.5l-1.8-1.5L112.6,59.1z M156.9,74l-1.8,1.5L149,59l6.1-15l1.8,1.5
		l-5.5,13.7L156.9,74z M161,28.5l-3.2-3.2l-1.4,1.4l3.2,3.2L161,28.5z"/>
	<path class="st0" d="M152.5,27c3,0,5.5-2.5,5.5-5.5s-2.5-5.5-5.5-5.5s-5.5,2.5-5.5,5.5S149.5,27,152.5,27z"/>
	<path d="M150,21h5v1h-5V21z M117,28.5l-1.4,1.4l-3.2-3.2l1.4-1.4L117,28.5z"/>
	<path class="st0" d="M108.5,27c3,0,5.5-2.5,5.5-5.5s-2.5-5.5-5.5-5.5s-5.5,2.5-5.5,5.5S105.5,27,108.5,27z"/>
	<g>
		<path d="M106,21h5v1h-5V21z"/>
		<path d="M109,19l-0.1,5h-1l0.1-5H109z"/>
	</g>
</g>
</svg>
