<?xml version="1.0" standalone="no"?>
<!DOCTYPE svg PUBLIC "-//W3C//DTD SVG 20010904//EN"
 "http://www.w3.org/TR/2001/REC-SVG-20010904/DTD/svg10.dtd">
<svg version="1.0" xmlns="http://www.w3.org/2000/svg"
 width="700.000000pt" height="700.000000pt" viewBox="0 0 700.000000 700.000000"
 preserveAspectRatio="xMidYMid meet">
<metadata>
Created by potrace 1.11, written by Peter Selinger 2001-2013
</metadata>
<g transform="translate(0.000000,700.000000) scale(0.100000,-0.100000)"
fill="#000000" stroke="none">
<path d="M210 6457 l0 -493 448 1 c246 0 453 -1 460 -3 9 -3 12 -602 12 -2951
l0 -2946 678 1 677 2 5 2948 5 2949 455 0 455 0 3 493 2 492 -1600 0 -1600 0
0 -493z"/>
<path d="M3603 3508 l0 -3443 861 2 c925 1 1030 4 1225 33 337 51 613 179 779
362 154 170 269 425 307 683 4 22 8 47 10 55 15 57 20 246 20 740 0 631 -3
695 -46 915 -103 528 -360 772 -890 845 -61 8 -86 16 -86 26 0 8 15 17 36 21
47 9 51 10 54 13 1 1 9 3 17 5 190 40 426 144 550 244 202 161 304 361 356
696 3 22 8 261 10 530 3 500 1 551 -37 720 -89 396 -341 689 -730 849 -143 59
-322 105 -479 122 -25 3 -58 8 -75 11 -16 3 -447 8 -956 10 l-926 4 0 -3443z
m1655 2438 c97 -33 154 -114 176 -255 13 -81 15 -1257 2 -1336 -14 -87 -43
-149 -93 -197 -53 -51 -119 -68 -262 -68 l-116 0 1 938 c1 515 2 937 3 938 0
0 55 -1 121 -2 77 -1 137 -8 168 -18z m1 -2720 c55 -11 110 -44 136 -85 50
-75 51 -98 50 -1020 -2 -964 0 -930 -75 -1002 -52 -50 -108 -63 -270 -63
l-135 -1 -1 1080 c0 594 1 1085 4 1091 3 12 225 12 291 0z"/>
</g>
</svg>
